<svg width="496" height="496" viewBox="0 0 496 496" fill="none" xmlns="http://www.w3.org/2000/svg">
<path d="M456 496H40C17.6 496 0 478.4 0 456V40C0 17.6 17.6 0 40 0H456C478.4 0 496 17.6 496 40V456C496 478.4 478.4 496 456 496ZM40 16C26.4 16 16 26.4 16 40V456C16 469.6 26.4 480 40 480H456C469.6 480 480 469.6 480 456V40C480 26.4 469.6 16 456 16H40ZM408 416H351.2C346.4 416 343.2 412.8 343.2 408V297.6C343.2 268 341.6 258.4 340 255.2C338.4 249.6 335.2 245.6 331.2 243.2C327.2 240 322.4 239.2 316.8 239.2C308.8 239.2 301.6 241.6 296 245.6C289.6 250.4 285.6 256 283.2 263.2C281.6 268.8 279.2 281.6 279.2 310.4V408C279.2 412.8 276 416 271.2 416H202.4C197.6 416 194.4 412.8 194.4 408V187.2C194.4 182.4 197.6 179.2 202.4 179.2H259.2C264 179.2 267.2 182.4 267.2 187.2V199.2C285.6 182.4 307.2 174.4 332.8 174.4C347.2 174.4 360 176.8 372 182.4C384 187.2 393.6 194.4 400 202.4C406.4 210.4 410.4 220 412.8 229.6C415.2 239.2 416 252.8 416 270.4V408C416 412.8 412.8 416 408 416ZM359.2 400H400V271.2C400 255.2 399.2 242.4 396.8 233.6C395.2 225.6 391.2 218.4 386.4 212C381.6 205.6 374.4 200.8 364.8 196.8C355.2 192.8 344 190.4 332 190.4C304.8 190.4 282.4 201.6 264.8 224.8C262.4 227.2 259.2 228.8 256 227.2C252.8 226.4 250.4 223.2 250.4 220V195.2H209.6V400H262.4V310.4C262.4 284.8 264 268 267.2 258.4C270.4 248 276.8 239.2 285.6 232.8C294.4 226.4 304.8 223.2 316 223.2C324.8 223.2 332.8 225.6 340 230.4C346.4 235.2 351.2 241.6 354.4 250.4C356 255.2 358.4 265.6 358.4 298.4V400H359.2ZM144.8 416H88C83.2 416 80 412.8 80 408V187.2C80 182.4 83.2 179.2 88 179.2H144.8C149.6 179.2 152.8 182.4 152.8 187.2V408C152.8 412.8 149.6 416 144.8 416ZM96 400H136.8V195.2H96V400ZM116.8 151.2C96.8 151.2 80 135.2 80 116C80 96.8 96.8 80.8 116.8 80.8C136.8 80.8 153.6 96.8 153.6 116C153.6 135.2 136.8 151.2 116.8 151.2ZM116.8 96C105.6 96 96 104.8 96 115.2C96 125.6 105.6 134.4 116.8 134.4C128 134.4 137.6 125.6 137.6 115.2C137.6 104.8 128 96 116.8 96Z" fill="white"/>
</svg>
