<svg width="512" height="512" viewBox="0 0 512 512" fill="none" xmlns="http://www.w3.org/2000/svg">
<path d="M309.333 509.056C306.504 509.056 303.791 507.932 301.791 505.932C299.79 503.931 298.667 501.218 298.667 498.389V419.029C298.667 399.851 296.213 386.24 290.923 376.256C290.163 374.813 289.743 373.215 289.698 371.585C289.652 369.954 289.98 368.335 290.658 366.852C291.336 365.368 292.345 364.06 293.608 363.027C294.87 361.995 296.353 361.266 297.941 360.896C361.173 346.304 405.333 300.032 405.333 248.363C405.333 222.763 394.816 198.336 374.933 177.707C373.436 176.157 372.443 174.191 372.085 172.066C371.727 169.941 372.021 167.757 372.928 165.803C380.864 148.693 379.179 125.397 369.771 111.424C357.333 116.288 341.184 126.464 330.688 138.923C329.285 140.604 327.394 141.809 325.278 142.371C323.161 142.932 320.922 142.823 318.869 142.059C278.249 127.38 233.772 127.38 193.152 142.059C191.1 142.813 188.866 142.919 186.752 142.362C184.638 141.805 182.747 140.612 181.333 138.944C170.837 126.485 154.688 116.309 142.229 111.445C132.821 125.419 131.136 148.715 139.072 165.824C139.98 167.775 140.275 169.955 139.917 172.077C139.559 174.199 138.565 176.162 137.067 177.707C117.184 198.336 106.667 222.784 106.667 248.363C106.667 297.579 146.411 341.909 205.568 358.656C207.805 359.292 209.773 360.64 211.174 362.496C212.576 364.351 213.334 366.613 213.333 368.939V376.384C213.333 389.739 207.979 397.269 203.477 401.259C193.835 409.728 181.376 408.448 180.011 408.299H179.797C162.219 408.299 148.992 398.507 136.213 389.035C129.792 384.277 123.285 379.435 115.712 375.424C117.355 377.643 118.976 379.925 120.619 382.208C136.619 404.459 154.731 429.696 181.355 429.696H202.688C205.517 429.696 208.23 430.82 210.23 432.82C212.231 434.821 213.355 437.534 213.355 440.363V498.389C213.354 499.985 212.995 501.561 212.305 503C211.614 504.439 210.609 505.705 209.365 506.704C208.12 507.703 206.667 508.41 205.113 508.773C203.558 509.135 201.942 509.145 200.384 508.8C84.2667 483.029 0 378.005 0 259.029C0 117.867 114.837 3.0293 256 3.0293C397.163 3.0293 512 117.867 512 259.029C512 377.984 427.733 483.029 311.637 508.8C310.881 508.969 310.108 509.055 309.333 509.056ZM314.837 378.475C318.336 389.504 320 402.731 320 419.029V484.693C419.648 456.405 490.667 363.584 490.667 259.029C490.667 129.643 385.387 24.3626 256 24.3626C126.613 24.3626 21.3333 129.643 21.3333 259.029C21.3333 363.584 92.352 456.405 192 484.693V451.029H181.333C143.787 451.029 121.323 419.776 103.275 394.645C93.056 380.416 82.4747 365.696 74.6667 365.696C71.8377 365.696 69.1246 364.572 67.1242 362.572C65.1238 360.571 64 357.858 64 355.029C64 352.2 65.1238 349.487 67.1242 347.487C69.1246 345.486 71.8377 344.363 74.6667 344.363C111.787 344.363 132.373 359.616 148.907 371.883C160.341 380.352 169.344 387.029 181.333 387.029C182.528 387.093 186.944 387.413 189.419 385.195C191.445 383.36 191.957 379.712 192 376.832C127.872 355.776 85.3333 304.981 85.3333 248.384C85.3333 219.285 96.256 191.637 116.992 168.043C107.84 141.525 113.493 109.141 131.115 91.4986C132.426 90.1685 134.067 89.2108 135.87 88.7235C137.673 88.2362 139.573 88.2368 141.376 88.7253C155.627 92.5013 176.789 103.573 192.597 119.68C233.806 106.432 278.13 106.432 319.339 119.68C335.147 103.573 356.309 92.5013 370.56 88.7253C372.363 88.2346 374.263 88.2328 376.067 88.7202C377.87 89.2077 379.511 90.1667 380.821 91.4986C398.464 109.141 404.096 141.525 394.944 168.021C415.744 191.637 426.667 219.285 426.667 248.363C426.667 306.56 381.291 358.656 314.837 378.475Z" fill="white"/>
</svg>
